<?xml version="1.0" encoding="utf-8"?>
<!-- Generator: Adobe Illustrator 22.1.0, SVG Export Plug-In . SVG Version: 6.00 Build 0)  -->
<svg version="1.1" id="Layer_1" xmlns="http://www.w3.org/2000/svg" xmlns:xlink="http://www.w3.org/1999/xlink" x="0px" y="0px"
	 viewBox="0 0 250 209" style="enable-background:new 0 0 250 209;" xml:space="preserve">
<style type="text/css">
	.st0{fill:#FFFFFF;}
</style>
<g>
	<path class="st0" d="M251,141c0,15,0,30,0,45c-1.5,0.1-3,0.3-4.5,0.3c-80.4,0-160.7,0-241.1,0c-1.5,0-3-0.2-4.5-0.3c0-15,0-30,0-45
		c2-0.1,4-0.3,6-0.3c29.3,0,58.7,0,88,0c1.8,0,3.6,0,5.8,0c0-6.6,0.2-12.6-0.1-18.5c-0.1-1.7-1.4-3.9-2.8-4.9
		c-18.2-12.3-26.1-32.6-21.3-54.1c2.3-10.5,8.3-18.4,15.8-25.6c8.8-8.4,19.3-12.2,31.1-13c13-0.8,24.4,3.4,35,11
		c12.2,8.8,21.4,31.2,18.8,45.6c-2.7,15.3-10.1,27.2-22.9,36c-0.8,0.6-1.9,1.6-1.9,2.5c-0.2,6.9-0.1,13.8-0.1,21
		c21.4,0,42.1,0,62.7,0C227,140.8,239,140.9,251,141z"/>
	<path d="M251,141c-12-0.1-24-0.2-36-0.3c-20.7,0-41.3,0-62.7,0c0-7.2-0.1-14.1,0.1-21c0-0.8,1.1-1.9,1.9-2.5
		c12.7-8.8,20.2-20.7,22.9-36c2.6-14.4-6.6-36.8-18.8-45.6c-10.5-7.6-21.9-11.8-35-11c-11.8,0.7-22.4,4.6-31.1,13
		c-7.5,7.2-13.5,15.1-15.8,25.6c-4.8,21.5,3.1,41.8,21.3,54.1c1.4,1,2.7,3.2,2.8,4.9c0.3,5.9,0.1,11.9,0.1,18.5c-2.2,0-4,0-5.8,0
		c-29.3,0-58.7,0-88,0c-2,0-4,0.2-6,0.3c0-8,0-16,0-24c22.5,0,45.1,0,67.6,0c-4.2-6.7-8.9-12.9-12.1-19.7c-7.9-16.4-6.9-33.3,0-49.7
		c7.9-18.6,21-32.5,39.9-40.3C101.8,5,107.4,3.1,113,1c8.7,0,17.3,0,26,0c0.3,0.4,0.5,1,0.8,1.1c27.4,5.7,46.5,21.7,56.8,47.5
		c6.5,16.1,6.6,32.9-1.3,48.8c-3.2,6.5-7.7,12.4-11.7,18.5c0,0,0.2,0.3,0.5,0.3c22.3,0,44.6-0.1,66.8-0.2C251,125,251,133,251,141z"
		/>
	<path class="st0" d="M113,1c-5.6,2.1-11.2,4-16.6,6.2C77.4,15,64.3,28.9,56.4,47.5c-6.9,16.4-7.9,33.3,0,49.7
		c3.3,6.8,8,13,12.1,19.7c-22.5,0-45,0-67.6,0C1,78.4,1,39.8,1,1C38.3,1,75.7,1,113,1z"/>
	<path class="st0" d="M251,117c-22.3,0.1-44.6,0.1-66.8,0.2c-0.3,0-0.5-0.3-0.5-0.3c3.9-6.2,8.5-12,11.7-18.5
		c7.9-15.9,7.8-32.7,1.3-48.8c-10.3-25.7-29.4-41.8-56.8-47.5C139.5,2,139.3,1.4,139,1c37.3,0,74.7,0,112,0
		C251,39.7,251,78.3,251,117z"/>
	<path d="M1,186c1.5,0.1,3,0.3,4.5,0.3c80.4,0,160.7,0,241.1,0c1.5,0,3-0.2,4.5-0.3c0,8,0,16,0,24c-83.3,0-166.7,0-250,0
		C1,202,1,194,1,186z"/>
</g>
</svg>
