<?xml version="1.0" encoding="utf-8"?>
<!-- Generator: Adobe Illustrator 22.1.0, SVG Export Plug-In . SVG Version: 6.00 Build 0)  -->
<svg version="1.1" id="Layer_1" xmlns="http://www.w3.org/2000/svg" xmlns:xlink="http://www.w3.org/1999/xlink" x="0px" y="0px"
	 viewBox="0 0 2100 1500" style="enable-background:new 0 0 2100 1500;" xml:space="preserve">
<style type="text/css">
	.st0{fill:#FCFCFC;}
	.st1{fill:#D5D5D5;}
	.st2{fill:#FDFDFD;}
	.st3{fill:#D4D4D4;}
	.st4{fill:#FEFEFE;}
</style>
<g>
	<path class="st0" d="M0.4-5.6c698.5,0,1397,0,2095.5-0.1c3.7,0,4.6,0.8,4.6,4.6c-0.1,497-0.1,994,0,1491c0,3.7-0.8,4.6-4.6,4.6
		c-697-0.1-1394-0.1-2091,0c-3.7,0-4.6-0.8-4.6-4.6C0.4,991.4,0.4,492.9,0.4-5.6z"/>
	<path class="st1" d="M1024.4,109.9c187.2-3.3,346,57.4,475.9,187.5c111.6,111.7,173.4,248,182.7,405.8
		c11.1,187.6-49.2,350.6-180.5,485c-115.2,118-257.1,181.4-422,188.9c-180.8,8.2-338.4-50.8-469.2-175.8
		c-117.9-112.6-183.1-251.8-193.6-414.7c-11.5-177.9,42.6-335,161.9-467.3C699.1,187,850.1,119,1024.4,109.9z"/>
	<path class="st2" d="M1096.9,1363.4c-388.9,0.3-647.8-271-665.3-578.5c-10.4-184.1,48.2-344,177.3-475.8
		c114-116.4,254.4-178.3,417.3-184.3c178.2-6.5,332.6,53.5,459.7,178.3c112.1,110,173.9,245.2,183,402.1
		c10.4,177.5-45.2,333.2-167.1,462.9C1380,1297.9,1227.9,1361,1096.9,1363.4z"/>
	<path class="st3" d="M1058.6,1216.4c-61.3,0-122.7,0-184,0c-7,0-7-0.1-4.4-6.5c4.9-12,15.4-15.5,26.7-17.4
		c15.1-2.5,30.5-3.1,45.2-8c44.2-14.8,74.5-43,85.6-89.5c1.9-7.8,2.8-15.7,2.8-23.8c0-179.7,0-359.3,0-539c0-7.6,0.7-15.3,0.9-22.9
		c0.1-5.3-1.9-9.2-6-13c-7.1-6.5-13.3-13.9-12.1-24.9c0.7-6.4,0.9-13.1,0-19.5c-1.5-10,3.6-16.8,9.5-23.4c1.4-1.6,3.1-3,4.8-4.4
		c3.5-2.9,3.4-6.9,2.5-10.6c-0.8-3.3-4.1-2.1-6.4-2.3c-24.5-2-49.1-3.4-73.6-5.2c-28.5-2.1-57.1-4-85.6-5.9
		c-23.9-1.6-47.8-3.2-71.7-5c-16.6-1.2-33.2-2.5-49.7-3.9c-7.1-0.6-7.6,0-5.5,6.9c28.4,93.9,56.8,187.9,85.3,281.8
		c22.9,75.7,45.8,151.5,68.8,227.2c1.1,3.7,2.6,7.3,3.2,11c0.7,4.3,3.1,5.2,7,5.1c8.3-0.2,16.7-0.1,25,0c1.7,0,4.1-0.5,4.8,1.7
		c0.7,2.3-1.7,3-3.1,4c-29.2,19.5-60.9,33.7-94.6,43.2c-25.1,7.1-50.6,11.3-76.6,13.3c-62,4.7-121.4-5.6-178.5-30
		c-16.4-7-32-15.7-47.5-24.5c-2.5-1.4-6.6-2.7-5.8-6c0.9-3.2,5-1.5,7.6-1.6c8.8-0.2,17.7-0.2,26.5,0c3.5,0.1,5.1-1,6.2-4.7
		c22.5-74.8,45.3-149.6,67.9-224.4c24.2-79.9,48.2-159.8,72.4-239.7c5.9-19.6,11.8-39.2,17.9-58.8c1.2-3.7,0.9-5.3-3.6-5.6
		c-24.7-1.7-49.4-3.7-74.2-5c-4.6-0.2-9.4-0.3-13.9-1.2c-5-1-7.1,0.9-9.3,4.9c-3.8,6.7-10.2,9.7-17.7,8.9
		c-8.1-0.9-14.3-5.2-16.7-13.6c-2.9-10.2,2.2-20.1,12.1-23.7c9.5-3.4,20.2,0.9,23.9,10.6c1.8,4.7,4.5,5.5,8.7,5.3
		c19.9-1,39.9-1.9,59.8-2.9c9.5-0.5,19-0.4,28.4-0.9c21.4-1.3,42.9-1.3,64.4-2.3c26.4-1.1,52.9-2.3,79.3-3.1
		c15.6-0.5,31.2-1.2,46.9-1.9c26.4-1.1,52.9-2.1,79.3-3.1c15.8-0.6,31.6-1.8,47.4-1.8c1.3,0,2.7,0,4-0.1c5.5-0.5,6.5-2.1,4.6-7.1
		c-1.8-4.8-5.1-8.6-8.6-12.2c-11-11.2-12.4-24.5-3.7-37.7c6.2-9.4,12.8-18.7,19.3-27.9c3.7-5.2,5.6-5.1,9.3,0.1
		c6.4,9,12.7,17.9,19,27c9.2,13.3,7.9,27.3-3.5,38.9c-3.8,3.8-7.5,7.6-9,13c-1.2,4.4-0.2,5.8,4.4,6c13.1,0.4,26.3,0.5,39.4,1.1
		c26.1,1.2,52.2,2.2,78.3,3.1c16,0.6,31.9,1.3,47.9,1.9c28.4,1.1,56.8,2.6,85.3,3.8c9.1,0.4,18.3,0.5,27.4,0.9
		c22.1,1.2,44.2,1.4,66.4,2.3c19.6,0.8,39.2,1.9,58.8,2.9c2,0.1,4,0,6,0.1c3,0.1,4.8-0.9,5.9-4c3.2-8.8,11-13.6,19.8-12.9
		c8.6,0.7,15.2,6.7,17.3,15.6c2,8.8-2.8,17.7-11.6,21.4c-8,3.4-18.3,1-22.5-6.4c-2.8-5-5.8-6.3-11.4-5.8c-18.4,1.7-36.8,2.8-55.2,4
		c-12.3,0.8-24.6,1.6-36.9,2.1c-10.5,0.5-10.7,0.5-7.8,10.1c12.4,41.2,24.9,82.3,37.3,123.4c16,52.8,31.9,105.6,47.9,158.4
		c13.7,45.3,27.5,90.6,41.2,135.9c10,33.2,20.2,66.3,30,99.5c1.3,4.3,3.3,5.9,7.7,5.8c8.5-0.3,17-0.1,25.5,0c1.6,0,3.8-0.6,4.5,1.2
		c0.9,2.3-1.6,3-3,3.9c-35.2,23.4-73.7,39.2-114.9,48.7c-36,8.3-72.5,10.6-109.2,8.9c-27.8-1.3-55.1-6.8-82-14.5
		c-31.9-9.2-61.9-22.8-90.4-39.6c-3-1.8-8.5-3.3-7.6-6.8c1-3.8,6.4-1.6,9.8-1.8c8.2-0.3,16.3-0.2,24.5,0c3.6,0.1,5.2-1.2,6.3-4.7
		c26.4-87.6,52.9-175.1,79.4-262.7c17.1-56.5,34.1-112.9,51.2-169.4c8.6-28.5,17.4-57.1,26-85.6c2.7-9,2.3-9.4-7.3-8.6
		c-13.9,1.2-27.9,1.9-41.8,2.9c-16.2,1.2-32.5,2.5-48.7,3.7c-11.4,0.8-22.9,1.5-34.4,2.3c-17.6,1.2-35.2,2.5-52.7,3.8
		c-11.4,0.8-22.9,1.4-34.3,2.2c-18.6,1.3-37.1,2.7-55.7,3.9c-3.7,0.2-4.5,2.1-4.2,5.2c0.3,3.3,1.6,6.2,4.2,8.2
		c7.8,6,11.7,13.4,10.9,23.6c-0.7,9.3-0.6,18.7,0,28c0.4,7.4-2.2,13.2-7.5,17.6c-6,5.1-7.8,11-7.8,18.8c0.2,176,0,352,0.3,528
		c0,21.4,0,43,6.1,63.9c8.7,29.9,27.3,51.8,54,67.2c19.1,11,39.7,17,61.6,18.6c8.3,0.6,16.5,2,24.4,5.1c7.5,3,13.1,7.8,15.9,15.6
		c1.2,3.4,0.3,5.2-3.5,5.1c-1.7,0-3.3,0-5,0C1179.6,1216.4,1119.1,1216.4,1058.6,1216.4z"/>
	<path class="st4" d="M730.8,396.3c1.8,5.8,3.6,11.2,5.2,16.7c16.1,53.1,32.1,106.2,48.2,159.3c17.9,59.2,35.7,118.3,53.6,177.5
		c16.1,53.2,32.3,106.5,48.5,159.7c1,3.3,2,6.7,3,10.1c0.8,2.6,0,3.8-2.8,3.8c-1.3,0-2.7,0-4,0c-101.3,0-202.6,0-303.9,0
		c-0.2,0-0.3,0-0.5,0c-8,0-8,0-5.7-7.7c21.1-70,42.2-140,63.4-210c18.1-59.8,36.3-119.5,54.4-179.3c12.6-41.4,25-82.9,37.6-124.4
		C728.4,400.2,728.4,398.1,730.8,396.3z"/>
	<path class="st4" d="M1374.3,396.7c3,9.7,6,19.3,8.9,29c12.5,41.5,25,82.9,37.6,124.4c14.6,48.3,29.2,96.7,43.8,145
		c12.7,42.1,25.5,84.2,38.3,126.3c9.8,32.4,19.5,64.8,29.4,97.1c1.2,4-0.2,5.2-3.9,5c-2-0.1-4,0-6,0c-100,0-200,0-300,0
		c-1.2,0-2.3-0.1-3.5,0c-4.4,0.4-5.1-1.5-3.9-5.3c4.4-14.2,8.6-28.4,12.9-42.6c15.9-52.6,31.8-105.3,47.7-157.9
		c13.8-45.4,27.6-90.9,41.3-136.3c17.9-59.3,35.8-118.7,53.8-178c0.7-2.2,1.4-4.4,2.2-6.6C1373.3,396.7,1373.8,396.7,1374.3,396.7z"
		/>
</g>
</svg>
